<svg width="135" height="38" viewBox="0 0 135 38" fill="none" xmlns="http://www.w3.org/2000/svg">
<path d="M123.539 33.3984H118.125C117.984 33.3984 117.914 33.3203 117.914 33.1641V5.78906H111.68C111.523 5.78906 111.445 5.71094 111.445 5.55469L111.492 0.1875C111.492 0.0625 111.555 0 111.68 0H129.914C130.086 0 130.172 0.0625 130.172 0.1875V5.55469C130.172 5.71094 130.109 5.78906 129.984 5.78906H123.68L123.727 33.1641C123.727 33.3203 123.664 33.3984 123.539 33.3984Z" fill="black"/>
<path d="M108.891 33.3984H103.453C103.297 33.3984 103.219 33.3203 103.219 33.1641L103.266 0.1875C103.266 0.0625 103.328 0 103.453 0H108.844C108.969 0 109.031 0.0625 109.031 0.1875L109.078 33.1641C109.078 33.3203 109.016 33.3984 108.891 33.3984Z" fill="black"/>
<path d="M86.5312 33.3984H81.1406C80.9844 33.3984 80.9062 33.3203 80.9062 33.1641L81 0.1875C81 0.0625 81.0625 0 81.1875 0H90.4219C93.3594 0 95.6797 0.898438 97.3828 2.69531C99.1016 4.47656 99.9609 6.90625 99.9609 9.98438C99.9609 12.2344 99.5156 14.1953 98.625 15.8672C97.7188 17.5234 96.5469 18.8047 95.1094 19.7109C93.6719 20.6172 92.1094 21.0703 90.4219 21.0703H86.7656V33.1641C86.7656 33.3203 86.6875 33.3984 86.5312 33.3984ZM90.4219 5.69531L86.7656 5.74219V15.2578H90.4219C91.4375 15.2578 92.3203 14.7734 93.0703 13.8047C93.8203 12.8203 94.1953 11.5469 94.1953 9.98438C94.1953 8.73438 93.8594 7.71094 93.1875 6.91406C92.5156 6.10156 91.5938 5.69531 90.4219 5.69531Z" fill="black"/>
<path d="M77.5312 33.3984H62.0156C61.8906 33.3984 61.8281 33.3203 61.8281 33.1641L61.875 0.234375C61.875 0.078125 61.9531 0 62.1094 0H67.4531C67.6094 0 67.6875 0.078125 67.6875 0.234375L67.6406 27.4922H77.5312C77.6875 27.4922 77.7656 27.5703 77.7656 27.7266V33.1641C77.7656 33.3203 77.6875 33.3984 77.5312 33.3984Z" fill="black"/>
<path d="M58.4531 33.3984H42.9375C42.8125 33.3984 42.75 33.3203 42.75 33.1641L42.7969 0.234375C42.7969 0.078125 42.875 0 43.0312 0H48.375C48.5312 0 48.6094 0.078125 48.6094 0.234375L48.5625 27.4922H58.4531C58.6094 27.4922 58.6875 27.5703 58.6875 27.7266V33.1641C58.6875 33.3203 58.6094 33.3984 58.4531 33.3984Z" fill="black"/>
<path d="M20.6484 33.1641L26.6016 0.1875C26.6328 0.0625 26.7109 0 26.8359 0H33.7969C33.9219 0 34 0.0625 34.0312 0.1875L39.75 33.1641C39.7656 33.3203 39.7031 33.3984 39.5625 33.3984H34.2422C34.0859 33.3984 34 33.3203 33.9844 33.1641L33.4688 29.6484H26.9297L26.4141 33.1641C26.3984 33.3203 26.3203 33.3984 26.1797 33.3984H20.8359C20.7109 33.3984 20.6484 33.3203 20.6484 33.1641ZM30.5391 11.0391L30.2578 9.25781L30.0469 11.0391L27.8906 24.5156H32.5078L30.5391 11.0391Z" fill="black"/>
<path d="M8.78906 33.3984H0.1875C0.0625 33.3984 0 33.3203 0 33.1641L0.09375 0.1875C0.09375 0.0625 0.15625 0 0.28125 0H9.51562C11.3125 0 12.9453 0.4375 14.4141 1.3125C15.8516 2.1875 16.9844 3.35156 17.8125 4.80469C18.6406 6.24219 19.0547 7.80469 19.0547 9.49219C19.0547 10.8672 18.7422 12.1484 18.1172 13.3359C17.4922 14.5234 16.75 15.4844 15.8906 16.2188C16.8125 17.1406 17.5312 18.2109 18.0469 19.4297C18.5625 20.6484 18.8203 21.9297 18.8203 23.2734C18.8203 25.1328 18.375 26.8281 17.4844 28.3594C16.5781 29.8906 15.3672 31.1172 13.8516 32.0391C12.3359 32.9453 10.6484 33.3984 8.78906 33.3984ZM9.51562 5.69531H5.85938V13.2422H9.51562C10.625 13.2422 11.5234 12.8516 12.2109 12.0703C12.8984 11.2734 13.2422 10.4141 13.2422 9.49219C13.2422 8.47656 12.875 7.59375 12.1406 6.84375C11.4062 6.07812 10.5312 5.69531 9.51562 5.69531ZM8.78906 19.0547H5.85938L5.8125 27.5391H8.78906C9.94531 27.5391 10.9375 27.1172 11.7656 26.2734C12.5938 25.4297 13.0078 24.4297 13.0078 23.2734C13.0078 22.1172 12.5938 21.125 11.7656 20.2969C10.9375 19.4688 9.94531 19.0547 8.78906 19.0547Z" fill="black"/>
<path d="M125.539 35.3984H120.125C119.984 35.3984 119.914 35.3203 119.914 35.1641V7.78906H113.68C113.523 7.78906 113.445 7.71094 113.445 7.55469L113.492 2.1875C113.492 2.0625 113.555 2 113.68 2H131.914C132.086 2 132.172 2.0625 132.172 2.1875V7.55469C132.172 7.71094 132.109 7.78906 131.984 7.78906H125.68L125.727 35.1641C125.727 35.3203 125.664 35.3984 125.539 35.3984Z" fill="#891111"/>
<path d="M110.891 35.3984H105.453C105.297 35.3984 105.219 35.3203 105.219 35.1641L105.266 2.1875C105.266 2.0625 105.328 2 105.453 2H110.844C110.969 2 111.031 2.0625 111.031 2.1875L111.078 35.1641C111.078 35.3203 111.016 35.3984 110.891 35.3984Z" fill="#891111"/>
<path d="M88.5312 35.3984H83.1406C82.9844 35.3984 82.9062 35.3203 82.9062 35.1641L83 2.1875C83 2.0625 83.0625 2 83.1875 2H92.4219C95.3594 2 97.6797 2.89844 99.3828 4.69531C101.102 6.47656 101.961 8.90625 101.961 11.9844C101.961 14.2344 101.516 16.1953 100.625 17.8672C99.7188 19.5234 98.5469 20.8047 97.1094 21.7109C95.6719 22.6172 94.1094 23.0703 92.4219 23.0703H88.7656V35.1641C88.7656 35.3203 88.6875 35.3984 88.5312 35.3984ZM92.4219 7.69531L88.7656 7.74219V17.2578H92.4219C93.4375 17.2578 94.3203 16.7734 95.0703 15.8047C95.8203 14.8203 96.1953 13.5469 96.1953 11.9844C96.1953 10.7344 95.8594 9.71094 95.1875 8.91406C94.5156 8.10156 93.5938 7.69531 92.4219 7.69531Z" fill="#891111"/>
<path d="M79.5312 35.3984H64.0156C63.8906 35.3984 63.8281 35.3203 63.8281 35.1641L63.875 2.23438C63.875 2.07812 63.9531 2 64.1094 2H69.4531C69.6094 2 69.6875 2.07812 69.6875 2.23438L69.6406 29.4922H79.5312C79.6875 29.4922 79.7656 29.5703 79.7656 29.7266V35.1641C79.7656 35.3203 79.6875 35.3984 79.5312 35.3984Z" fill="#891111"/>
<path d="M60.4531 35.3984H44.9375C44.8125 35.3984 44.75 35.3203 44.75 35.1641L44.7969 2.23438C44.7969 2.07812 44.875 2 45.0312 2H50.375C50.5312 2 50.6094 2.07812 50.6094 2.23438L50.5625 29.4922H60.4531C60.6094 29.4922 60.6875 29.5703 60.6875 29.7266V35.1641C60.6875 35.3203 60.6094 35.3984 60.4531 35.3984Z" fill="#891111"/>
<path d="M22.6484 35.1641L28.6016 2.1875C28.6328 2.0625 28.7109 2 28.8359 2H35.7969C35.9219 2 36 2.0625 36.0312 2.1875L41.75 35.1641C41.7656 35.3203 41.7031 35.3984 41.5625 35.3984H36.2422C36.0859 35.3984 36 35.3203 35.9844 35.1641L35.4688 31.6484H28.9297L28.4141 35.1641C28.3984 35.3203 28.3203 35.3984 28.1797 35.3984H22.8359C22.7109 35.3984 22.6484 35.3203 22.6484 35.1641ZM32.5391 13.0391L32.2578 11.2578L32.0469 13.0391L29.8906 26.5156H34.5078L32.5391 13.0391Z" fill="#891111"/>
<path d="M10.7891 35.3984H2.1875C2.0625 35.3984 2 35.3203 2 35.1641L2.09375 2.1875C2.09375 2.0625 2.15625 2 2.28125 2H11.5156C13.3125 2 14.9453 2.4375 16.4141 3.3125C17.8516 4.1875 18.9844 5.35156 19.8125 6.80469C20.6406 8.24219 21.0547 9.80469 21.0547 11.4922C21.0547 12.8672 20.7422 14.1484 20.1172 15.3359C19.4922 16.5234 18.75 17.4844 17.8906 18.2188C18.8125 19.1406 19.5312 20.2109 20.0469 21.4297C20.5625 22.6484 20.8203 23.9297 20.8203 25.2734C20.8203 27.1328 20.375 28.8281 19.4844 30.3594C18.5781 31.8906 17.3672 33.1172 15.8516 34.0391C14.3359 34.9453 12.6484 35.3984 10.7891 35.3984ZM11.5156 7.69531H7.85938V15.2422H11.5156C12.625 15.2422 13.5234 14.8516 14.2109 14.0703C14.8984 13.2734 15.2422 12.4141 15.2422 11.4922C15.2422 10.4766 14.875 9.59375 14.1406 8.84375C13.4062 8.07812 12.5312 7.69531 11.5156 7.69531ZM10.7891 21.0547H7.85938L7.8125 29.5391H10.7891C11.9453 29.5391 12.9375 29.1172 13.7656 28.2734C14.5938 27.4297 15.0078 26.4297 15.0078 25.2734C15.0078 24.1172 14.5938 23.125 13.7656 22.2969C12.9375 21.4688 11.9453 21.0547 10.7891 21.0547Z" fill="#891111"/>
<path d="M127.539 37.3984H122.125C121.984 37.3984 121.914 37.3203 121.914 37.1641V9.78906H115.68C115.523 9.78906 115.445 9.71094 115.445 9.55469L115.492 4.1875C115.492 4.0625 115.555 4 115.68 4H133.914C134.086 4 134.172 4.0625 134.172 4.1875V9.55469C134.172 9.71094 134.109 9.78906 133.984 9.78906H127.68L127.727 37.1641C127.727 37.3203 127.664 37.3984 127.539 37.3984Z" fill="#0D2E9A"/>
<path d="M112.891 37.3984H107.453C107.297 37.3984 107.219 37.3203 107.219 37.1641L107.266 4.1875C107.266 4.0625 107.328 4 107.453 4H112.844C112.969 4 113.031 4.0625 113.031 4.1875L113.078 37.1641C113.078 37.3203 113.016 37.3984 112.891 37.3984Z" fill="#0D2E9A"/>
<path d="M90.5312 37.3984H85.1406C84.9844 37.3984 84.9062 37.3203 84.9062 37.1641L85 4.1875C85 4.0625 85.0625 4 85.1875 4H94.4219C97.3594 4 99.6797 4.89844 101.383 6.69531C103.102 8.47656 103.961 10.9062 103.961 13.9844C103.961 16.2344 103.516 18.1953 102.625 19.8672C101.719 21.5234 100.547 22.8047 99.1094 23.7109C97.6719 24.6172 96.1094 25.0703 94.4219 25.0703H90.7656V37.1641C90.7656 37.3203 90.6875 37.3984 90.5312 37.3984ZM94.4219 9.69531L90.7656 9.74219V19.2578H94.4219C95.4375 19.2578 96.3203 18.7734 97.0703 17.8047C97.8203 16.8203 98.1953 15.5469 98.1953 13.9844C98.1953 12.7344 97.8594 11.7109 97.1875 10.9141C96.5156 10.1016 95.5938 9.69531 94.4219 9.69531Z" fill="#0D2E9A"/>
<path d="M81.5312 37.3984H66.0156C65.8906 37.3984 65.8281 37.3203 65.8281 37.1641L65.875 4.23438C65.875 4.07812 65.9531 4 66.1094 4H71.4531C71.6094 4 71.6875 4.07812 71.6875 4.23438L71.6406 31.4922H81.5312C81.6875 31.4922 81.7656 31.5703 81.7656 31.7266V37.1641C81.7656 37.3203 81.6875 37.3984 81.5312 37.3984Z" fill="#0D2E9A"/>
<path d="M62.4531 37.3984H46.9375C46.8125 37.3984 46.75 37.3203 46.75 37.1641L46.7969 4.23438C46.7969 4.07812 46.875 4 47.0312 4H52.375C52.5312 4 52.6094 4.07812 52.6094 4.23438L52.5625 31.4922H62.4531C62.6094 31.4922 62.6875 31.5703 62.6875 31.7266V37.1641C62.6875 37.3203 62.6094 37.3984 62.4531 37.3984Z" fill="#0D2E9A"/>
<path d="M24.6484 37.1641L30.6016 4.1875C30.6328 4.0625 30.7109 4 30.8359 4H37.7969C37.9219 4 38 4.0625 38.0312 4.1875L43.75 37.1641C43.7656 37.3203 43.7031 37.3984 43.5625 37.3984H38.2422C38.0859 37.3984 38 37.3203 37.9844 37.1641L37.4688 33.6484H30.9297L30.4141 37.1641C30.3984 37.3203 30.3203 37.3984 30.1797 37.3984H24.8359C24.7109 37.3984 24.6484 37.3203 24.6484 37.1641ZM34.5391 15.0391L34.2578 13.2578L34.0469 15.0391L31.8906 28.5156H36.5078L34.5391 15.0391Z" fill="#0D2E9A"/>
<path d="M12.7891 37.3984H4.1875C4.0625 37.3984 4 37.3203 4 37.1641L4.09375 4.1875C4.09375 4.0625 4.15625 4 4.28125 4H13.5156C15.3125 4 16.9453 4.4375 18.4141 5.3125C19.8516 6.1875 20.9844 7.35156 21.8125 8.80469C22.6406 10.2422 23.0547 11.8047 23.0547 13.4922C23.0547 14.8672 22.7422 16.1484 22.1172 17.3359C21.4922 18.5234 20.75 19.4844 19.8906 20.2188C20.8125 21.1406 21.5312 22.2109 22.0469 23.4297C22.5625 24.6484 22.8203 25.9297 22.8203 27.2734C22.8203 29.1328 22.375 30.8281 21.4844 32.3594C20.5781 33.8906 19.3672 35.1172 17.8516 36.0391C16.3359 36.9453 14.6484 37.3984 12.7891 37.3984ZM13.5156 9.69531H9.85938V17.2422H13.5156C14.625 17.2422 15.5234 16.8516 16.2109 16.0703C16.8984 15.2734 17.2422 14.4141 17.2422 13.4922C17.2422 12.4766 16.875 11.5938 16.1406 10.8438C15.4062 10.0781 14.5312 9.69531 13.5156 9.69531ZM12.7891 23.0547H9.85938L9.8125 31.5391H12.7891C13.9453 31.5391 14.9375 31.1172 15.7656 30.2734C16.5938 29.4297 17.0078 28.4297 17.0078 27.2734C17.0078 26.1172 16.5938 25.125 15.7656 24.2969C14.9375 23.4688 13.9453 23.0547 12.7891 23.0547Z" fill="#0D2E9A"/>
</svg>
