<svg width="92" height="103" viewBox="0 0 92 103" fill="none" xmlns="http://www.w3.org/2000/svg">
<circle cx="38" cy="38" r="38" transform="matrix(1 0 0 -1 0 102.404)" fill="#D9D9D9"/>
<circle cx="13.2917" cy="13.2917" r="13.2917" transform="matrix(-0.997472 0.0710599 0.0710599 0.997472 89.5156 0)" fill="#D9D9D9"/>
<circle cx="7.48716" cy="7.48716" r="7.48716" transform="matrix(-0.434311 0.900763 0.900763 0.434311 48.2168 7.69922)" fill="#D9D9D9"/>
<path d="M23.5 90.9043C17.9 89.7043 12.5 79.7376 10.5 74.9043C13.1667 78.071 19.3 85.1043 22.5 87.9043C25.7 90.7043 36.8333 92.7376 42 93.4043C28 93.4043 30.5 92.4043 23.5 90.9043Z" fill="#D9D9D9"/>
<path d="M81.6027 4.5938C83.5863 4.87329 85.7181 8.2164 86.536 9.85303C85.5269 8.81447 83.2122 6.51301 82.0261 5.61563C80.84 4.71826 76.9051 4.28556 75.0859 4.18138C79.9705 3.83341 79.1231 4.24444 81.6027 4.5938Z" fill="#D9D9D9"/>
<path d="M48.2434 12.8532C48.9355 11.962 51.1665 11.8565 52.1954 11.9151C51.4052 12.1174 49.6321 12.6041 48.8614 12.9324C48.0906 13.2607 46.777 15.0627 46.2166 15.9226C47.4146 13.4379 47.3781 13.9672 48.2434 12.8532Z" fill="#D9D9D9"/>
</svg>
