<svg width="300" height="103" viewBox="0 0 300 103" fill="none" xmlns="http://www.w3.org/2000/svg">
<circle cx="38" cy="38" r="38" transform="matrix(1 0 0 -1 0 102.404)" fill="black"/>
<circle cx="13.2917" cy="13.2917" r="13.2917" transform="matrix(-0.997472 0.0710599 0.0710599 0.997472 89.5156 0)" fill="black"/>
<circle cx="7.48716" cy="7.48716" r="7.48716" transform="matrix(-0.434311 0.900763 0.900763 0.434311 48.2168 7.69922)" fill="black"/>
<path d="M23.5 90.9043C17.9 89.7043 12.5 79.7376 10.5 74.9043C13.1667 78.071 19.3 85.1043 22.5 87.9043C25.7 90.7043 36.8333 92.7376 42 93.4043C28 93.4043 30.5 92.4043 23.5 90.9043Z" fill="#D9D9D9"/>
<path d="M81.6027 4.5938C83.5863 4.87329 85.7181 8.2164 86.536 9.85303C85.5269 8.81447 83.2122 6.51301 82.0261 5.61563C80.84 4.71826 76.9051 4.28556 75.0859 4.18138C79.9705 3.83341 79.1231 4.24444 81.6027 4.5938Z" fill="#D9D9D9"/>
<path d="M48.2434 12.8532C48.9355 11.962 51.1665 11.8565 52.1954 11.9151C51.4052 12.1174 49.6321 12.6041 48.8614 12.9324C48.0906 13.2607 46.777 15.0627 46.2166 15.9226C47.4146 13.4379 47.3781 13.9672 48.2434 12.8532Z" fill="#D9D9D9"/>
<path d="M288.948 92.5148H280.273C280.048 92.5148 279.935 92.3896 279.935 92.1392V48.2759H269.946C269.695 48.2759 269.57 48.1507 269.57 47.9004L269.645 39.3004C269.645 39.1001 269.746 39 269.946 39H299.163C299.438 39 299.576 39.1001 299.576 39.3004V47.9004C299.576 48.1507 299.476 48.2759 299.276 48.2759H289.174L289.249 92.1392C289.249 92.3896 289.149 92.5148 288.948 92.5148Z" fill="black"/>
<path d="M265.477 92.5148H256.764C256.514 92.5148 256.389 92.3896 256.389 92.1392L256.464 39.3004C256.464 39.1001 256.564 39 256.764 39H265.402C265.602 39 265.702 39.1001 265.702 39.3004L265.777 92.1392C265.777 92.3896 265.677 92.5148 265.477 92.5148Z" fill="black"/>
<path d="M229.65 92.5148H221.012C220.762 92.5148 220.637 92.3896 220.637 92.1392L220.787 39.3004C220.787 39.1001 220.887 39 221.087 39H235.884C240.591 39 244.308 40.4396 247.037 43.3187C249.791 46.1729 251.168 50.066 251.168 54.9981C251.168 58.6033 250.455 61.7453 249.028 64.4242C247.576 67.078 245.698 69.131 243.395 70.5831C241.091 72.0352 238.588 72.7612 235.884 72.7612H230.025V92.1392C230.025 92.3896 229.9 92.5148 229.65 92.5148ZM235.884 48.1257L230.025 48.2008V63.4478H235.884C237.511 63.4478 238.926 62.6717 240.127 61.1194C241.329 59.5422 241.93 57.5017 241.93 54.9981C241.93 52.9952 241.392 51.3553 240.315 50.0785C239.239 48.7766 237.761 48.1257 235.884 48.1257Z" fill="black"/>
<path d="M215.23 92.5148H190.369C190.169 92.5148 190.068 92.3896 190.068 92.1392L190.143 39.3755C190.143 39.1252 190.269 39 190.519 39H199.081C199.332 39 199.457 39.1252 199.457 39.3755L199.382 83.0511H215.23C215.48 83.0511 215.605 83.1763 215.605 83.4266V92.1392C215.605 92.3896 215.48 92.5148 215.23 92.5148Z" fill="black"/>
<path d="M184.659 92.5148H159.798C159.598 92.5148 159.498 92.3896 159.498 92.1392L159.573 39.3755C159.573 39.1252 159.698 39 159.949 39H168.511C168.761 39 168.887 39.1252 168.887 39.3755L168.811 83.0511H184.659C184.91 83.0511 185.035 83.1763 185.035 83.4266V92.1392C185.035 92.3896 184.91 92.5148 184.659 92.5148Z" fill="black"/>
<path d="M124.086 92.1392L133.625 39.3004C133.675 39.1001 133.8 39 134 39H145.154C145.354 39 145.479 39.1001 145.529 39.3004L154.693 92.1392C154.718 92.3896 154.618 92.5148 154.392 92.5148H145.867C145.617 92.5148 145.479 92.3896 145.454 92.1392L144.628 86.5061H134.15L133.324 92.1392C133.299 92.3896 133.174 92.5148 132.949 92.5148H124.386C124.186 92.5148 124.086 92.3896 124.086 92.1392ZM139.934 56.688L139.483 53.8339L139.145 56.688L135.69 78.2817H143.088L139.934 56.688Z" fill="black"/>
<path d="M105.083 92.5148H91.3004C91.1001 92.5148 91 92.3896 91 92.1392L91.1502 39.3004C91.1502 39.1001 91.2504 39 91.4507 39H106.247C109.126 39 111.742 39.701 114.096 41.103C116.399 42.5051 118.214 44.3703 119.541 46.6986C120.868 49.0019 121.532 51.5056 121.532 54.2095C121.532 56.4126 121.031 58.4656 120.029 60.3684C119.028 62.2711 117.839 63.8108 116.462 64.9875C117.939 66.4647 119.091 68.1796 119.917 70.1325C120.743 72.0853 121.156 74.1382 121.156 76.2913C121.156 79.2706 120.443 81.9871 119.015 84.4406C117.563 86.8942 115.623 88.8595 113.195 90.3366C110.766 91.7887 108.062 92.5148 105.083 92.5148ZM106.247 48.1257H100.389V60.2181H106.247C108.025 60.2181 109.464 59.5922 110.566 58.3404C111.667 57.0636 112.218 55.6866 112.218 54.2095C112.218 52.5821 111.63 51.1676 110.453 49.9658C109.276 48.7391 107.874 48.1257 106.247 48.1257ZM105.083 69.5316H100.389L100.313 83.1262H105.083C106.936 83.1262 108.525 82.4502 109.852 81.0983C111.179 79.7463 111.843 78.144 111.843 76.2913C111.843 74.4387 111.179 72.8489 109.852 71.522C108.525 70.195 106.936 69.5316 105.083 69.5316Z" fill="black"/>
</svg>
