<svg width="722" height="277" viewBox="0 0 722 277" fill="none" xmlns="http://www.w3.org/2000/svg">
<path d="M721.25 268.5H679.875C679.542 268.5 679.375 268.292 679.375 267.875L679.5 180.062C679.5 179.646 679.708 179.438 680.125 179.438H694.375C694.792 179.438 695 179.646 695 180.062L694.875 252.75H721.25C721.667 252.75 721.875 252.958 721.875 253.375V267.875C721.875 268.292 721.667 268.5 721.25 268.5Z" fill="#0D0D0E"/>
<path d="M670.375 268.5H629C628.667 268.5 628.5 268.292 628.5 267.875L628.625 180.062C628.625 179.646 628.833 179.438 629.25 179.438H643.5C643.917 179.438 644.125 179.646 644.125 180.062L644 252.75H670.375C670.792 252.75 671 252.958 671 253.375V267.875C671 268.292 670.792 268.5 670.375 268.5Z" fill="#0D0D0E"/>
<path d="M569.562 267.875L585.438 179.938C585.521 179.604 585.729 179.438 586.062 179.438H604.625C604.958 179.438 605.167 179.604 605.25 179.938L620.5 267.875C620.542 268.292 620.375 268.5 620 268.5H605.812C605.396 268.5 605.167 268.292 605.125 267.875L603.75 258.5H586.312L584.938 267.875C584.896 268.292 584.688 268.5 584.312 268.5H570.062C569.729 268.5 569.562 268.292 569.562 267.875ZM595.938 208.875L595.188 204.125L594.625 208.875L588.875 244.812H601.188L595.938 208.875Z" fill="#0D0D0E"/>
<path d="M539.438 269.75C534.812 269.75 530.583 268.583 526.75 266.25C522.958 263.917 519.938 260.792 517.688 256.875C515.479 252.917 514.375 248.521 514.375 243.688L514.5 203.75C514.5 199 515.583 194.708 517.75 190.875C519.917 187 522.896 183.896 526.688 181.562C530.521 179.188 534.771 178 539.438 178C544.188 178 548.417 179.146 552.125 181.438C555.875 183.729 558.854 186.833 561.062 190.75C563.312 194.625 564.438 198.958 564.438 203.75V209.625C564.438 209.958 564.271 210.125 563.938 210.125H549.562C549.229 210.125 549.062 209.958 549.062 209.625V203.75C549.062 200.917 548.146 198.479 546.312 196.438C544.479 194.396 542.188 193.375 539.438 193.375C536.396 193.375 534.062 194.417 532.438 196.5C530.812 198.583 530 201 530 203.75V243.688C530 246.812 530.917 249.375 532.75 251.375C534.583 253.333 536.812 254.312 539.438 254.312C542.188 254.312 544.479 253.229 546.312 251.062C548.146 248.854 549.062 246.396 549.062 243.688V237.75C549.062 237.417 549.229 237.25 549.562 237.25H564.062C564.396 237.25 564.562 237.417 564.562 237.75V243.688C564.562 248.479 563.438 252.854 561.188 256.812C558.896 260.729 555.875 263.875 552.125 266.25C548.375 268.583 544.146 269.75 539.438 269.75Z" fill="#0D0D0E"/>
<path d="M423.688 267.875L439.562 179.938C439.646 179.604 439.854 179.438 440.188 179.438H458.75C459.083 179.438 459.292 179.604 459.375 179.938L474.625 267.875C474.667 268.292 474.5 268.5 474.125 268.5H459.938C459.521 268.5 459.292 268.292 459.25 267.875L457.875 258.5H440.438L439.062 267.875C439.021 268.292 438.812 268.5 438.438 268.5H424.188C423.854 268.5 423.688 268.292 423.688 267.875ZM450.062 208.875L449.312 204.125L448.75 208.875L443 244.812H455.312L450.062 208.875Z" fill="#0D0D0E"/>
<path d="M370.812 268.5H356.375C356 268.5 355.812 268.292 355.812 267.875V194.875H339.188C338.771 194.875 338.562 194.667 338.562 194.25L338.688 179.938C338.688 179.604 338.854 179.438 339.188 179.438H387.812C388.271 179.438 388.5 179.604 388.5 179.938V194.25C388.5 194.667 388.333 194.875 388 194.875H371.188L371.312 267.875C371.312 268.292 371.146 268.5 370.812 268.5Z" fill="#0D0D0E"/>
<path d="M309.5 269.75C304.958 269.75 300.771 268.583 296.938 266.25C293.146 263.917 290.104 260.812 287.812 256.938C285.562 253.021 284.438 248.729 284.438 244.062V238.188C284.438 237.729 284.646 237.5 285.062 237.5H299.438C299.771 237.5 299.938 237.729 299.938 238.188V244.062C299.938 246.854 300.875 249.271 302.75 251.312C304.625 253.312 306.875 254.312 309.5 254.312C312.167 254.312 314.438 253.292 316.312 251.25C318.188 249.167 319.125 246.771 319.125 244.062C319.125 240.938 317.083 238.208 313 235.875C312.333 235.458 311.458 234.958 310.375 234.375C309.333 233.75 308.083 233.042 306.625 232.25C305.167 231.458 303.75 230.688 302.375 229.938C301 229.146 299.667 228.396 298.375 227.688C293.708 224.938 290.229 221.5 287.938 217.375C285.688 213.208 284.562 208.542 284.562 203.375C284.562 198.625 285.729 194.333 288.062 190.5C290.396 186.708 293.438 183.708 297.188 181.5C300.979 179.25 305.083 178.125 309.5 178.125C314.042 178.125 318.208 179.25 322 181.5C325.792 183.792 328.812 186.833 331.062 190.625C333.354 194.417 334.5 198.667 334.5 203.375V213.875C334.5 214.208 334.333 214.375 334 214.375H319.625C319.292 214.375 319.125 214.208 319.125 213.875L319 203.375C319 200.375 318.062 197.938 316.188 196.062C314.312 194.188 312.083 193.25 309.5 193.25C306.875 193.25 304.625 194.25 302.75 196.25C300.875 198.25 299.938 200.625 299.938 203.375C299.938 206.167 300.521 208.5 301.688 210.375C302.896 212.25 305.083 214.042 308.25 215.75C308.583 215.917 309.354 216.333 310.562 217C311.771 217.667 313.104 218.417 314.562 219.25C316.062 220.042 317.417 220.771 318.625 221.438C319.833 222.062 320.562 222.438 320.812 222.562C325.062 224.938 328.417 227.854 330.875 231.312C333.375 234.771 334.625 239.021 334.625 244.062C334.625 248.938 333.5 253.312 331.25 257.188C328.958 261.062 325.917 264.125 322.125 266.375C318.333 268.625 314.125 269.75 309.5 269.75Z" fill="#0D0D0E"/>
<path d="M275.875 268.5H234.5C234.167 268.5 234 268.292 234 267.875L234.125 179.938C234.125 179.604 234.292 179.438 234.625 179.438H275.75C276.083 179.438 276.25 179.646 276.25 180.062V194.375C276.25 194.708 276.083 194.875 275.75 194.875H249.5V214.875H275.75C276.083 214.875 276.25 215.042 276.25 215.375L276.375 229.875C276.375 230.208 276.208 230.375 275.875 230.375H249.5V252.75H275.875C276.208 252.75 276.375 252.958 276.375 253.375V268C276.375 268.333 276.208 268.5 275.875 268.5Z" fill="#0D0D0E"/>
<path d="M198.688 269.75C194.188 269.75 190.021 268.583 186.188 266.25C182.354 263.917 179.292 260.792 177 256.875C174.75 252.917 173.625 248.604 173.625 243.938L173.875 179.938C173.875 179.604 174.042 179.438 174.375 179.438H188.75C189.083 179.438 189.25 179.604 189.25 179.938V243.938C189.25 246.812 190.167 249.271 192 251.312C193.833 253.312 196.062 254.312 198.688 254.312C201.438 254.312 203.729 253.312 205.562 251.312C207.396 249.271 208.312 246.812 208.312 243.938V179.938C208.312 179.604 208.479 179.438 208.812 179.438H223.188C223.521 179.438 223.688 179.604 223.688 179.938L223.938 243.938C223.938 248.646 222.812 252.979 220.562 256.938C218.271 260.854 215.229 263.979 211.438 266.312C207.646 268.604 203.396 269.75 198.688 269.75Z" fill="#0D0D0E"/>
<path d="M157.625 276.688L148.812 267.75C145.688 269.083 142.479 269.75 139.188 269.75C134.646 269.75 130.479 268.604 126.688 266.312C122.854 264.021 119.771 260.917 117.438 257C115.146 253.042 114 248.729 114 244.062L114.125 203.5C114.125 198.958 115.25 194.75 117.5 190.875C119.708 187 122.708 183.896 126.5 181.562C130.292 179.188 134.521 178 139.188 178C143.729 178 147.896 179.125 151.688 181.375C155.479 183.667 158.5 186.729 160.75 190.562C163.042 194.396 164.188 198.708 164.188 203.5L164.312 244.062C164.312 246.521 163.958 248.917 163.25 251.25C162.583 253.542 161.688 255.667 160.562 257.625L168.5 265.688C168.917 266.021 168.958 266.312 168.625 266.562L158.562 276.688C158.271 276.938 157.958 276.938 157.625 276.688ZM139.188 254.312C142.104 254.312 144.438 253.229 146.188 251.062C147.938 248.854 148.812 246.521 148.812 244.062L148.688 203.5C148.688 200.75 147.792 198.375 146 196.375C144.208 194.375 141.938 193.375 139.188 193.375C136.312 193.375 134 194.396 132.25 196.438C130.5 198.479 129.625 200.833 129.625 203.5V244.062C129.625 247.146 130.625 249.625 132.625 251.5C134.625 253.375 136.812 254.312 139.188 254.312Z" fill="#0D0D0E"/>
<path d="M103.625 268.5H62.25C61.9167 268.5 61.75 268.292 61.75 267.875L61.875 179.938C61.875 179.604 62.0417 179.438 62.375 179.438H103.5C103.833 179.438 104 179.646 104 180.062V194.375C104 194.708 103.833 194.875 103.5 194.875H77.25V214.875H103.5C103.833 214.875 104 215.042 104 215.375L104.125 229.875C104.125 230.208 103.958 230.375 103.625 230.375H77.25V252.75H103.625C103.958 252.75 104.125 252.958 104.125 253.375V268C104.125 268.333 103.958 268.5 103.625 268.5Z" fill="#0D0D0E"/>
<path d="M15 268.5H0.5C0.166667 268.5 0 268.292 0 267.875L0.25 179.938C0.25 179.604 0.416667 179.438 0.75 179.438H26.625C31.25 179.438 35.5 180.562 39.375 182.812C43.25 185.062 46.3333 188.083 48.625 191.875C50.9583 195.667 52.125 199.958 52.125 204.75C52.125 207.875 51.6458 210.708 50.6875 213.25C49.7292 215.792 48.6042 217.938 47.3125 219.688C46.0625 221.438 44.9167 222.729 43.875 223.562C48.5 228.688 50.8125 234.708 50.8125 241.625L50.9375 267.875C50.9375 268.292 50.7292 268.5 50.3125 268.5H35.8125C35.4792 268.5 35.3125 268.375 35.3125 268.125V241.625C35.3125 238.542 34.2292 235.875 32.0625 233.625C29.8958 231.375 27.2292 230.25 24.0625 230.25H15.625L15.5 267.875C15.5 268.292 15.3333 268.5 15 268.5ZM26.625 194.75H15.625V214.875H26.625C29.25 214.875 31.5833 213.896 33.625 211.938C35.7083 209.979 36.75 207.583 36.75 204.75C36.75 202.042 35.75 199.708 33.75 197.75C31.75 195.75 29.375 194.75 26.625 194.75Z" fill="#0D0D0E"/>
<path d="M604.77 179.5H563.395C563.061 179.5 562.895 179.292 562.895 178.875L563.02 91.0625C563.02 90.6458 563.228 90.4375 563.645 90.4375H577.895C578.311 90.4375 578.52 90.6458 578.52 91.0625L578.395 163.75H604.77C605.186 163.75 605.395 163.958 605.395 164.375V178.875C605.395 179.292 605.186 179.5 604.77 179.5Z" fill="#0000FF"/>
<path d="M562.855 179.5H521.48C521.147 179.5 520.98 179.292 520.98 178.875L521.105 91.0625C521.105 90.6458 521.314 90.4375 521.73 90.4375H535.98C536.397 90.4375 536.605 90.6458 536.605 91.0625L536.48 163.75H562.855C563.272 163.75 563.48 163.958 563.48 164.375V178.875C563.48 179.292 563.272 179.5 562.855 179.5Z" fill="#0000FF"/>
<path d="M471.002 178.875L486.877 90.9375C486.96 90.6042 487.169 90.4375 487.502 90.4375H506.064C506.398 90.4375 506.606 90.6042 506.689 90.9375L521.939 178.875C521.981 179.292 521.814 179.5 521.439 179.5H507.252C506.835 179.5 506.606 179.292 506.564 178.875L505.189 169.5H487.752L486.377 178.875C486.335 179.292 486.127 179.5 485.752 179.5H471.502C471.169 179.5 471.002 179.292 471.002 178.875ZM497.377 119.875L496.627 115.125L496.064 119.875L490.314 155.812H502.627L497.377 119.875Z" fill="#0000FF"/>
<path d="M449.838 180.75C445.213 180.75 440.984 179.583 437.15 177.25C433.359 174.917 430.338 171.792 428.088 167.875C425.88 163.917 424.775 159.521 424.775 154.688L424.9 114.75C424.9 110 425.984 105.708 428.15 101.875C430.317 98 433.296 94.8958 437.088 92.5625C440.921 90.1875 445.171 89 449.838 89C454.588 89 458.817 90.1458 462.525 92.4375C466.275 94.7292 469.255 97.8333 471.463 101.75C473.713 105.625 474.838 109.958 474.838 114.75V120.625C474.838 120.958 474.671 121.125 474.338 121.125H459.963C459.63 121.125 459.463 120.958 459.463 120.625V114.75C459.463 111.917 458.546 109.479 456.713 107.438C454.88 105.396 452.588 104.375 449.838 104.375C446.796 104.375 444.463 105.417 442.838 107.5C441.213 109.583 440.4 112 440.4 114.75V154.688C440.4 157.812 441.317 160.375 443.15 162.375C444.984 164.333 447.213 165.312 449.838 165.312C452.588 165.312 454.88 164.229 456.713 162.062C458.546 159.854 459.463 157.396 459.463 154.688V148.75C459.463 148.417 459.63 148.25 459.963 148.25H474.463C474.796 148.25 474.963 148.417 474.963 148.75V154.688C474.963 159.479 473.838 163.854 471.588 167.812C469.296 171.729 466.275 174.875 462.525 177.25C458.775 179.583 454.546 180.75 449.838 180.75Z" fill="#0000FF"/>
<path d="M352.008 178.875L367.883 90.9375C367.966 90.6042 368.174 90.4375 368.508 90.4375H387.07C387.404 90.4375 387.612 90.6042 387.695 90.9375L402.945 178.875C402.987 179.292 402.82 179.5 402.445 179.5H388.258C387.841 179.5 387.612 179.292 387.57 178.875L386.195 169.5H368.758L367.383 178.875C367.341 179.292 367.133 179.5 366.758 179.5H352.508C352.174 179.5 352.008 179.292 352.008 178.875ZM378.383 119.875L377.633 115.125L377.07 119.875L371.32 155.812H383.633L378.383 119.875Z" fill="#0000FF"/>
<path d="M317.053 179.5H302.615C302.24 179.5 302.053 179.292 302.053 178.875V105.875H285.428C285.011 105.875 284.803 105.667 284.803 105.25L284.928 90.9375C284.928 90.6042 285.094 90.4375 285.428 90.4375H334.053C334.511 90.4375 334.74 90.6042 334.74 90.9375V105.25C334.74 105.667 334.574 105.875 334.24 105.875H317.428L317.553 178.875C317.553 179.292 317.386 179.5 317.053 179.5Z" fill="#0000FF"/>
<path d="M264.699 180.75C260.158 180.75 255.97 179.583 252.137 177.25C248.345 174.917 245.303 171.812 243.012 167.938C240.762 164.021 239.637 159.729 239.637 155.062V149.188C239.637 148.729 239.845 148.5 240.262 148.5H254.637C254.97 148.5 255.137 148.729 255.137 149.188V155.062C255.137 157.854 256.074 160.271 257.949 162.312C259.824 164.312 262.074 165.312 264.699 165.312C267.366 165.312 269.637 164.292 271.512 162.25C273.387 160.167 274.324 157.771 274.324 155.062C274.324 151.938 272.283 149.208 268.199 146.875C267.533 146.458 266.658 145.958 265.574 145.375C264.533 144.75 263.283 144.042 261.824 143.25C260.366 142.458 258.949 141.688 257.574 140.938C256.199 140.146 254.866 139.396 253.574 138.688C248.908 135.938 245.428 132.5 243.137 128.375C240.887 124.208 239.762 119.542 239.762 114.375C239.762 109.625 240.928 105.333 243.262 101.5C245.595 97.7083 248.637 94.7083 252.387 92.5C256.178 90.25 260.283 89.125 264.699 89.125C269.241 89.125 273.408 90.25 277.199 92.5C280.991 94.7917 284.012 97.8333 286.262 101.625C288.553 105.417 289.699 109.667 289.699 114.375V124.875C289.699 125.208 289.533 125.375 289.199 125.375H274.824C274.491 125.375 274.324 125.208 274.324 124.875L274.199 114.375C274.199 111.375 273.262 108.938 271.387 107.062C269.512 105.188 267.283 104.25 264.699 104.25C262.074 104.25 259.824 105.25 257.949 107.25C256.074 109.25 255.137 111.625 255.137 114.375C255.137 117.167 255.72 119.5 256.887 121.375C258.095 123.25 260.283 125.042 263.449 126.75C263.783 126.917 264.553 127.333 265.762 128C266.97 128.667 268.303 129.417 269.762 130.25C271.262 131.042 272.616 131.771 273.824 132.438C275.033 133.062 275.762 133.438 276.012 133.562C280.262 135.938 283.616 138.854 286.074 142.312C288.574 145.771 289.824 150.021 289.824 155.062C289.824 159.938 288.699 164.312 286.449 168.188C284.158 172.062 281.116 175.125 277.324 177.375C273.533 179.625 269.324 180.75 264.699 180.75Z" fill="#0000FF"/>
<path d="M240.035 179.5H198.66C198.327 179.5 198.16 179.292 198.16 178.875L198.285 90.9375C198.285 90.6042 198.452 90.4375 198.785 90.4375H239.91C240.243 90.4375 240.41 90.6458 240.41 91.0625V105.375C240.41 105.708 240.243 105.875 239.91 105.875H213.66V125.875H239.91C240.243 125.875 240.41 126.042 240.41 126.375L240.535 140.875C240.535 141.208 240.368 141.375 240.035 141.375H213.66V163.75H240.035C240.368 163.75 240.535 163.958 240.535 164.375V179C240.535 179.333 240.368 179.5 240.035 179.5Z" fill="#0000FF"/>
<path d="M171.807 180.75C167.307 180.75 163.14 179.583 159.307 177.25C155.473 174.917 152.411 171.792 150.119 167.875C147.869 163.917 146.744 159.604 146.744 154.938L146.994 90.9375C146.994 90.6042 147.161 90.4375 147.494 90.4375H161.869C162.202 90.4375 162.369 90.6042 162.369 90.9375V154.938C162.369 157.812 163.286 160.271 165.119 162.312C166.952 164.312 169.182 165.312 171.807 165.312C174.557 165.312 176.848 164.312 178.682 162.312C180.515 160.271 181.432 157.812 181.432 154.938V90.9375C181.432 90.6042 181.598 90.4375 181.932 90.4375H196.307C196.64 90.4375 196.807 90.6042 196.807 90.9375L197.057 154.938C197.057 159.646 195.932 163.979 193.682 167.938C191.39 171.854 188.348 174.979 184.557 177.312C180.765 179.604 176.515 180.75 171.807 180.75Z" fill="#0000FF"/>
<path d="M139.705 187.688L130.893 178.75C127.768 180.083 124.559 180.75 121.268 180.75C116.726 180.75 112.559 179.604 108.768 177.312C104.934 175.021 101.851 171.917 99.5176 168C97.2259 164.042 96.0801 159.729 96.0801 155.062L96.2051 114.5C96.2051 109.958 97.3301 105.75 99.5801 101.875C101.788 98 104.788 94.8958 108.58 92.5625C112.372 90.1875 116.601 89 121.268 89C125.809 89 129.976 90.125 133.768 92.375C137.559 94.6667 140.58 97.7292 142.83 101.562C145.122 105.396 146.268 109.708 146.268 114.5L146.393 155.062C146.393 157.521 146.038 159.917 145.33 162.25C144.663 164.542 143.768 166.667 142.643 168.625L150.58 176.688C150.997 177.021 151.038 177.312 150.705 177.562L140.643 187.688C140.351 187.938 140.038 187.938 139.705 187.688ZM121.268 165.312C124.184 165.312 126.518 164.229 128.268 162.062C130.018 159.854 130.893 157.521 130.893 155.062L130.768 114.5C130.768 111.75 129.872 109.375 128.08 107.375C126.288 105.375 124.018 104.375 121.268 104.375C118.393 104.375 116.08 105.396 114.33 107.438C112.58 109.479 111.705 111.833 111.705 114.5V155.062C111.705 158.146 112.705 160.625 114.705 162.5C116.705 164.375 118.893 165.312 121.268 165.312Z" fill="#0000FF"/>
<path d="M94.6641 179.5H53.2891C52.9557 179.5 52.7891 179.292 52.7891 178.875L52.9141 90.9375C52.9141 90.6042 53.0807 90.4375 53.4141 90.4375H94.5391C94.8724 90.4375 95.0391 90.6458 95.0391 91.0625V105.375C95.0391 105.708 94.8724 105.875 94.5391 105.875H68.2891V125.875H94.5391C94.8724 125.875 95.0391 126.042 95.0391 126.375L95.1641 140.875C95.1641 141.208 94.9974 141.375 94.6641 141.375H68.2891V163.75H94.6641C94.9974 163.75 95.1641 163.958 95.1641 164.375V179C95.1641 179.333 94.9974 179.5 94.6641 179.5Z" fill="#0000FF"/>
<path d="M15 179.5H0.5C0.166667 179.5 0 179.292 0 178.875L0.25 90.9375C0.25 90.6042 0.416667 90.4375 0.75 90.4375H26.625C31.25 90.4375 35.5 91.5625 39.375 93.8125C43.25 96.0625 46.3333 99.0833 48.625 102.875C50.9583 106.667 52.125 110.958 52.125 115.75C52.125 118.875 51.6458 121.708 50.6875 124.25C49.7292 126.792 48.6042 128.938 47.3125 130.688C46.0625 132.438 44.9167 133.729 43.875 134.562C48.5 139.688 50.8125 145.708 50.8125 152.625L50.9375 178.875C50.9375 179.292 50.7292 179.5 50.3125 179.5H35.8125C35.4792 179.5 35.3125 179.375 35.3125 179.125V152.625C35.3125 149.542 34.2292 146.875 32.0625 144.625C29.8958 142.375 27.2292 141.25 24.0625 141.25H15.625L15.5 178.875C15.5 179.292 15.3333 179.5 15 179.5ZM26.625 105.75H15.625V125.875H26.625C29.25 125.875 31.5833 124.896 33.625 122.938C35.7083 120.979 36.75 118.583 36.75 115.75C36.75 113.042 35.75 110.708 33.75 108.75C31.75 106.75 29.375 105.75 26.625 105.75Z" fill="#0000FF"/>
<path d="M338.529 90.5H297.154C296.821 90.5 296.654 90.2917 296.654 89.875L296.779 2.0625C296.779 1.64583 296.988 1.4375 297.404 1.4375H311.654C312.071 1.4375 312.279 1.64583 312.279 2.0625L312.154 74.75H338.529C338.946 74.75 339.154 74.9583 339.154 75.375V89.875C339.154 90.2917 338.946 90.5 338.529 90.5Z" fill="#0D0D0E"/>
<path d="M317.096 90.5H275.721C275.387 90.5 275.221 90.2917 275.221 89.875L275.346 2.0625C275.346 1.64583 275.554 1.4375 275.971 1.4375H290.221C290.637 1.4375 290.846 1.64583 290.846 2.0625L290.721 74.75H317.096C317.512 74.75 317.721 74.9583 317.721 75.375V89.875C317.721 90.2917 317.512 90.5 317.096 90.5Z" fill="#0D0D0E"/>
<path d="M245.723 89.875L261.598 1.9375C261.681 1.60417 261.889 1.4375 262.223 1.4375H280.785C281.118 1.4375 281.327 1.60417 281.41 1.9375L296.66 89.875C296.702 90.2917 296.535 90.5 296.16 90.5H281.973C281.556 90.5 281.327 90.2917 281.285 89.875L279.91 80.5H262.473L261.098 89.875C261.056 90.2917 260.848 90.5 260.473 90.5H246.223C245.889 90.5 245.723 90.2917 245.723 89.875ZM272.098 30.875L271.348 26.125L270.785 30.875L265.035 66.8125H277.348L272.098 30.875Z" fill="#0D0D0E"/>
<path d="M245.037 91.75C240.412 91.75 236.183 90.5833 232.35 88.25C228.558 85.9167 225.537 82.7917 223.287 78.875C221.079 74.9167 219.975 70.5208 219.975 65.6875L220.1 25.75C220.1 21 221.183 16.7083 223.35 12.875C225.516 9 228.495 5.89583 232.287 3.5625C236.12 1.1875 240.37 0 245.037 0C249.787 0 254.016 1.14583 257.725 3.4375C261.475 5.72917 264.454 8.83333 266.662 12.75C268.912 16.625 270.037 20.9583 270.037 25.75V31.625C270.037 31.9583 269.87 32.125 269.537 32.125H255.162C254.829 32.125 254.662 31.9583 254.662 31.625V25.75C254.662 22.9167 253.745 20.4792 251.912 18.4375C250.079 16.3958 247.787 15.375 245.037 15.375C241.995 15.375 239.662 16.4167 238.037 18.5C236.412 20.5833 235.6 23 235.6 25.75V65.6875C235.6 68.8125 236.516 71.375 238.35 73.375C240.183 75.3333 242.412 76.3125 245.037 76.3125C247.787 76.3125 250.079 75.2292 251.912 73.0625C253.745 70.8542 254.662 68.3958 254.662 65.6875V59.75C254.662 59.4167 254.829 59.25 255.162 59.25H269.662C269.995 59.25 270.162 59.4167 270.162 59.75V65.6875C270.162 70.4792 269.037 74.8542 266.787 78.8125C264.495 82.7292 261.475 85.875 257.725 88.25C253.975 90.5833 249.745 91.75 245.037 91.75Z" fill="#0D0D0E"/>
<path d="M188.168 89.875L204.043 1.9375C204.126 1.60417 204.335 1.4375 204.668 1.4375H223.23C223.564 1.4375 223.772 1.60417 223.855 1.9375L239.105 89.875C239.147 90.2917 238.98 90.5 238.605 90.5H224.418C224.001 90.5 223.772 90.2917 223.73 89.875L222.355 80.5H204.918L203.543 89.875C203.501 90.2917 203.293 90.5 202.918 90.5H188.668C188.335 90.5 188.168 90.2917 188.168 89.875ZM214.543 30.875L213.793 26.125L213.23 30.875L207.48 66.8125H219.793L214.543 30.875Z" fill="#0D0D0E"/>
<path d="M194.172 90.5H179.734C179.359 90.5 179.172 90.2917 179.172 89.875V16.875H162.547C162.13 16.875 161.922 16.6667 161.922 16.25L162.047 1.9375C162.047 1.60417 162.214 1.4375 162.547 1.4375H211.172C211.63 1.4375 211.859 1.60417 211.859 1.9375V16.25C211.859 16.6667 211.693 16.875 211.359 16.875H194.547L194.672 89.875C194.672 90.2917 194.505 90.5 194.172 90.5Z" fill="#0D0D0E"/>
<path d="M162.301 91.75C157.759 91.75 153.572 90.5833 149.738 88.25C145.947 85.9167 142.905 82.8125 140.613 78.9375C138.363 75.0208 137.238 70.7292 137.238 66.0625V60.1875C137.238 59.7292 137.447 59.5 137.863 59.5H152.238C152.572 59.5 152.738 59.7292 152.738 60.1875V66.0625C152.738 68.8542 153.676 71.2708 155.551 73.3125C157.426 75.3125 159.676 76.3125 162.301 76.3125C164.967 76.3125 167.238 75.2917 169.113 73.25C170.988 71.1667 171.926 68.7708 171.926 66.0625C171.926 62.9375 169.884 60.2083 165.801 57.875C165.134 57.4583 164.259 56.9583 163.176 56.375C162.134 55.75 160.884 55.0417 159.426 54.25C157.967 53.4583 156.551 52.6875 155.176 51.9375C153.801 51.1458 152.467 50.3958 151.176 49.6875C146.509 46.9375 143.03 43.5 140.738 39.375C138.488 35.2083 137.363 30.5417 137.363 25.375C137.363 20.625 138.53 16.3333 140.863 12.5C143.197 8.70833 146.238 5.70833 149.988 3.5C153.78 1.25 157.884 0.125 162.301 0.125C166.842 0.125 171.009 1.25 174.801 3.5C178.592 5.79167 181.613 8.83333 183.863 12.625C186.155 16.4167 187.301 20.6667 187.301 25.375V35.875C187.301 36.2083 187.134 36.375 186.801 36.375H172.426C172.092 36.375 171.926 36.2083 171.926 35.875L171.801 25.375C171.801 22.375 170.863 19.9375 168.988 18.0625C167.113 16.1875 164.884 15.25 162.301 15.25C159.676 15.25 157.426 16.25 155.551 18.25C153.676 20.25 152.738 22.625 152.738 25.375C152.738 28.1667 153.322 30.5 154.488 32.375C155.697 34.25 157.884 36.0417 161.051 37.75C161.384 37.9167 162.155 38.3333 163.363 39C164.572 39.6667 165.905 40.4167 167.363 41.25C168.863 42.0417 170.217 42.7708 171.426 43.4375C172.634 44.0625 173.363 44.4375 173.613 44.5625C177.863 46.9375 181.217 49.8542 183.676 53.3125C186.176 56.7708 187.426 61.0208 187.426 66.0625C187.426 70.9375 186.301 75.3125 184.051 79.1875C181.759 83.0625 178.717 86.125 174.926 88.375C171.134 90.625 166.926 91.75 162.301 91.75Z" fill="#0D0D0E"/>
<path d="M158.115 90.5H116.74C116.407 90.5 116.24 90.2917 116.24 89.875L116.365 1.9375C116.365 1.60417 116.532 1.4375 116.865 1.4375H157.99C158.324 1.4375 158.49 1.64583 158.49 2.0625V16.375C158.49 16.7083 158.324 16.875 157.99 16.875H131.74V36.875H157.99C158.324 36.875 158.49 37.0417 158.49 37.375L158.615 51.875C158.615 52.2083 158.449 52.375 158.115 52.375H131.74V74.75H158.115C158.449 74.75 158.615 74.9583 158.615 75.375V90C158.615 90.3333 158.449 90.5 158.115 90.5Z" fill="#0D0D0E"/>
<path d="M110.367 91.75C105.867 91.75 101.701 90.5833 97.8672 88.25C94.0339 85.9167 90.9714 82.7917 88.6797 78.875C86.4297 74.9167 85.3047 70.6042 85.3047 65.9375L85.5547 1.9375C85.5547 1.60417 85.7214 1.4375 86.0547 1.4375H100.43C100.763 1.4375 100.93 1.60417 100.93 1.9375V65.9375C100.93 68.8125 101.846 71.2708 103.68 73.3125C105.513 75.3125 107.742 76.3125 110.367 76.3125C113.117 76.3125 115.409 75.3125 117.242 73.3125C119.076 71.2708 119.992 68.8125 119.992 65.9375V1.9375C119.992 1.60417 120.159 1.4375 120.492 1.4375H134.867C135.201 1.4375 135.367 1.60417 135.367 1.9375L135.617 65.9375C135.617 70.6458 134.492 74.9792 132.242 78.9375C129.951 82.8542 126.909 85.9792 123.117 88.3125C119.326 90.6042 115.076 91.75 110.367 91.75Z" fill="#0D0D0E"/>
<path d="M98.7441 98.6875L89.9316 89.75C86.8066 91.0833 83.5983 91.75 80.3066 91.75C75.765 91.75 71.5983 90.6042 67.8066 88.3125C63.9733 86.0208 60.89 82.9167 58.5566 79C56.265 75.0417 55.1191 70.7292 55.1191 66.0625L55.2441 25.5C55.2441 20.9583 56.3691 16.75 58.6191 12.875C60.8275 9 63.8275 5.89583 67.6191 3.5625C71.4108 1.1875 75.64 0 80.3066 0C84.8483 0 89.015 1.125 92.8066 3.375C96.5983 5.66667 99.6191 8.72917 101.869 12.5625C104.161 16.3958 105.307 20.7083 105.307 25.5L105.432 66.0625C105.432 68.5208 105.077 70.9167 104.369 73.25C103.702 75.5417 102.807 77.6667 101.682 79.625L109.619 87.6875C110.036 88.0208 110.077 88.3125 109.744 88.5625L99.6816 98.6875C99.39 98.9375 99.0775 98.9375 98.7441 98.6875ZM80.3066 76.3125C83.2233 76.3125 85.5566 75.2292 87.3066 73.0625C89.0566 70.8542 89.9316 68.5208 89.9316 66.0625L89.8066 25.5C89.8066 22.75 88.9108 20.375 87.1191 18.375C85.3275 16.375 83.0566 15.375 80.3066 15.375C77.4316 15.375 75.1191 16.3958 73.3691 18.4375C71.6191 20.4792 70.7441 22.8333 70.7441 25.5V66.0625C70.7441 69.1458 71.7441 71.625 73.7441 73.5C75.7441 75.375 77.9316 76.3125 80.3066 76.3125Z" fill="#0D0D0E"/>
<path d="M74.1855 90.5H32.8105C32.4772 90.5 32.3105 90.2917 32.3105 89.875L32.4355 1.9375C32.4355 1.60417 32.6022 1.4375 32.9355 1.4375H74.0605C74.3939 1.4375 74.5605 1.64583 74.5605 2.0625V16.375C74.5605 16.7083 74.3939 16.875 74.0605 16.875H47.8105V36.875H74.0605C74.3939 36.875 74.5605 37.0417 74.5605 37.375L74.6855 51.875C74.6855 52.2083 74.5189 52.375 74.1855 52.375H47.8105V74.75H74.1855C74.5189 74.75 74.6855 74.9583 74.6855 75.375V90C74.6855 90.3333 74.5189 90.5 74.1855 90.5Z" fill="#0D0D0E"/>
<path d="M15 90.5H0.5C0.166667 90.5 0 90.2917 0 89.875L0.25 1.9375C0.25 1.60417 0.416667 1.4375 0.75 1.4375H26.625C31.25 1.4375 35.5 2.5625 39.375 4.8125C43.25 7.0625 46.3333 10.0833 48.625 13.875C50.9583 17.6667 52.125 21.9583 52.125 26.75C52.125 29.875 51.6458 32.7083 50.6875 35.25C49.7292 37.7917 48.6042 39.9375 47.3125 41.6875C46.0625 43.4375 44.9167 44.7292 43.875 45.5625C48.5 50.6875 50.8125 56.7083 50.8125 63.625L50.9375 89.875C50.9375 90.2917 50.7292 90.5 50.3125 90.5H35.8125C35.4792 90.5 35.3125 90.375 35.3125 90.125V63.625C35.3125 60.5417 34.2292 57.875 32.0625 55.625C29.8958 53.375 27.2292 52.25 24.0625 52.25H15.625L15.5 89.875C15.5 90.2917 15.3333 90.5 15 90.5ZM26.625 16.75H15.625V36.875H26.625C29.25 36.875 31.5833 35.8958 33.625 33.9375C35.7083 31.9792 36.75 29.5833 36.75 26.75C36.75 24.0417 35.75 21.7083 33.75 19.75C31.75 17.75 29.375 16.75 26.625 16.75Z" fill="#0D0D0E"/>
</svg>
